<svg xmlns="http://www.w3.org/2000/svg" viewBox="0 0 14.2 15.9"><title>资源 6</title><g id="图层_2" data-name="图层 2"><g id="图层_1-2" data-name="图层 1"><path d="M14.12,12.67h-.47a.08.08,0,0,1-.08-.06,2.11,2.11,0,0,0-.17-.43.08.08,0,0,1,0-.1l.33-.33a.08.08,0,0,0,0-.12L13.09,11A.08.08,0,0,0,13,11l-.31.31a.08.08,0,0,1-.1,0,2.11,2.11,0,0,0-.45-.19.08.08,0,0,1-.06-.08v-.43a.08.08,0,0,0-.08-.08h-.91a.08.08,0,0,0-.08.08V11a.08.08,0,0,1-.06.08,2.11,2.11,0,0,0-.45.19.08.08,0,0,1-.1,0L10.06,11a.08.08,0,0,0-.12,0l-.64.64a.08.08,0,0,0,0,.12l.33.33a.08.08,0,0,1,0,.1,2.11,2.11,0,0,0-.17.43.08.08,0,0,1-.08.06H8.91a.08.08,0,0,0-.08.08v.91a.08.08,0,0,0,.08.08h.51a.08.08,0,0,1,.08.06,2.11,2.11,0,0,0,.18.4.08.08,0,0,1,0,.1l-.37.37a.08.08,0,0,0,0,.12l.64.64a.08.08,0,0,0,.12,0l.38-.38a.08.08,0,0,1,.1,0,2.11,2.11,0,0,0,.38.15.08.08,0,0,1,.06.08v.54a.08.08,0,0,0,.08.08H12a.08.08,0,0,0,.08-.08v-.54a.08.08,0,0,1,.06-.08A2.11,2.11,0,0,0,12.5,15a.08.08,0,0,1,.1,0l.38.38a.08.08,0,0,0,.12,0l.64-.64a.08.08,0,0,0,0-.12l-.37-.37a.08.08,0,0,1,0-.1,2.11,2.11,0,0,0,.18-.4.08.08,0,0,1,.08-.06h.51a.08.08,0,0,0,.08-.08v-.91A.08.08,0,0,0,14.12,12.67Zm-2.6,1.61a1.06,1.06,0,1,1,1.06-1.06A1.06,1.06,0,0,1,11.51,14.27Z"/><path d="M7.29,15.85H0V13.74a3.17,3.17,0,0,1,3.17-3.17H7.29"/><rect x="4.24" width="6.68" height="8.2" rx="3.29" ry="3.29"/></g></g></svg>