<svg id="图层_1" data-name="图层 1" xmlns="http://www.w3.org/2000/svg" viewBox="0 0 97.95 29"><defs><style>.cls-1,.cls-2{fill:#fff;}.cls-2{fill-rule:evenodd;}</style></defs><title>20170414 脚丫 证宝宝-ok</title><g id="_编组_" data-name="&lt;编组&gt;"><ellipse id="_路径_" data-name="&lt;路径&gt;" class="cls-1" cx="62.45" cy="6.74" rx="1.6" ry="1.61"/><g id="_编组_2" data-name="&lt;编组&gt;"><path id="_路径_2" data-name="&lt;路径&gt;" class="cls-1" d="M264.31,297a2.58,2.58,0,0,0-1.17-.89,4.84,4.84,0,0,0-1.56-.19h-6.43a1.89,1.89,0,0,1-3.61,0h-7a2.6,2.6,0,0,0-1.93.78,2.68,2.68,0,0,0-.79,2v1.56h1.92v-1a1.59,1.59,0,0,1,.29-.91A1,1,0,0,1,245,298H261.7a1.17,1.17,0,0,1,.81.23,1.09,1.09,0,0,1,.42.85v1.2h1.92v-1.81A2.44,2.44,0,0,0,264.31,297Z" transform="translate(-190.85 -288.61)"/><ellipse id="_路径_3" data-name="&lt;路径&gt;" class="cls-1" cx="70.86" cy="22.16" rx="1.59" ry="1.61"/><path id="_路径_4" data-name="&lt;路径&gt;" class="cls-1" d="M263.44,311.58a1.89,1.89,0,0,1-3.46,0h-5.75v-3.51h10.38v-2H254.23v-2.79h10.38v-2H241.9v2h10.41V306H241.9v2h10.41v3.51H241.74v2.06h23v-2.06Z" transform="translate(-190.85 -288.61)"/></g><ellipse id="_路径_5" data-name="&lt;路径&gt;" class="cls-1" cx="86.39" cy="6.74" rx="1.6" ry="1.61"/><g id="_编组_3" data-name="&lt;编组&gt;"><path id="_路径_6" data-name="&lt;路径&gt;" class="cls-1" d="M288.26,297a2.58,2.58,0,0,0-1.17-.89,4.84,4.84,0,0,0-1.56-.19h-6.43a1.89,1.89,0,0,1-3.61,0h-7a2.6,2.6,0,0,0-1.93.78,2.68,2.68,0,0,0-.79,2v1.56h1.92v-1a1.59,1.59,0,0,1,.29-.91,1,1,0,0,1,.94-.39h16.73a1.17,1.17,0,0,1,.81.23,1.09,1.09,0,0,1,.42.85v1.2h1.92v-1.81A2.44,2.44,0,0,0,288.26,297Z" transform="translate(-190.85 -288.61)"/><ellipse id="_路径_7" data-name="&lt;路径&gt;" class="cls-1" cx="94.81" cy="22.16" rx="1.59" ry="1.61"/><path id="_路径_8" data-name="&lt;路径&gt;" class="cls-1" d="M287.39,311.58a1.89,1.89,0,0,1-3.46,0h-5.75v-3.51h10.38v-2H278.18v-2.79h10.38v-2H265.85v2h10.41V306H265.85v2h10.41v3.51H265.69v2.06h23v-2.06Z" transform="translate(-190.85 -288.61)"/></g><rect id="_矩形_" data-name="&lt;矩形&gt;" class="cls-1" x="42.59" y="12.61" width="7.4" height="2.01"/><polygon id="_路径_9" data-name="&lt;路径&gt;" class="cls-1" points="49.99 25.08 34.67 25.08 33.4 23.07 49.99 23.07 49.99 25.08"/><rect id="_矩形_2" data-name="&lt;矩形&gt;" class="cls-1" x="225.71" y="303.71" width="14.83" height="1.99" transform="translate(-262.44 249.22) rotate(-90)"/><rect id="_矩形_3" data-name="&lt;矩形&gt;" class="cls-1" x="221.8" y="305.92" width="11.2" height="1.99" transform="translate(-270.37 245.7) rotate(-90)"/><path id="_路径_10" data-name="&lt;路径&gt;" class="cls-1" d="M218,295.94c-.39,0-.64,0-.76-.14s-.15-.22-.15-.6v-.85h-2.12v1.76a1.81,1.81,0,0,0,.88,1.59,3.09,3.09,0,0,0,1.54.27h5.86l1.28-2Z" transform="translate(-190.85 -288.61)"/><path id="_路径_11" data-name="&lt;路径&gt;" class="cls-1" d="M241.69,296.36a2.61,2.61,0,0,1,.53-.4H225.36l-1.28,2h16.84A2.65,2.65,0,0,1,241.69,296.36Z" transform="translate(-190.85 -288.61)"/><path id="_路径_12" data-name="&lt;路径&gt;" class="cls-1" d="M223.38,311.7h-.46a1.18,1.18,0,0,1-.75-.16c-.1-.09-.15-.22-.15-.6v-7.64h0v-1.75a1.81,1.81,0,0,0-.88-1.59,3.08,3.08,0,0,0-1.53-.26h-3l-1.27,2H219a2.11,2.11,0,0,1,.62.06l.1.07a1.1,1.1,0,0,1,.18.76v9.24a1.81,1.81,0,0,0,.88,1.59,3.08,3.08,0,0,0,1.53.26h2.34Z" transform="translate(-190.85 -288.61)"/></g><g id="_编组_4" data-name="&lt;编组&gt;"><path id="_路径_13" data-name="&lt;路径&gt;" class="cls-2" d="M197.65,313.43s-3-7.28-1.22-11.59c1.5-3.6,4.95-3.36,7.87-2.17,1.89.77,5.7,3.15,3.9,7.5a33.49,33.49,0,0,1-7.59,10.43c1.15-2.65,2.23-5.32,3.12-8.07.69-2.14,1.64-5.48-.71-6.36-2.84-1.06-3.75,2.34-5.36,10.26Z" transform="translate(-190.85 -288.61)"/><path id="_复合路径_" data-name="&lt;复合路径&gt;" class="cls-2" d="M194.93,288.71a3.11,3.11,0,0,0-3.84,2.18c-1.27,3.61,2.87,9,5.2,11.31-1.56-2.38-1.67-3.92.07-6.21s1.69-6.66-1.43-7.28Zm-.41,2.23a1.27,1.27,0,0,0-1.57.89,2.28,2.28,0,0,0,.13,1.7c1,2.27,2.19,1.58,2.47-.77a1.5,1.5,0,0,0-1-1.82Z" transform="translate(-190.85 -288.61)"/><path id="_复合路径_2" data-name="&lt;复合路径&gt;" class="cls-2" d="M202.36,289.7s-3.81-1-3.47,3.59c.17,2.32,1.26,3,2.32,3,2,0,3.25-3.38,2.82-5.1a2.21,2.21,0,0,0-1.68-1.52Zm-.58,1.83s-1.66-.45-1.51,1.56c.07,1,.55,1.32,1,1.32.87,0,1.41-1.47,1.23-2.22a1,1,0,0,0-.73-.66Z" transform="translate(-190.85 -288.61)"/><path id="_路径_14" data-name="&lt;路径&gt;" class="cls-2" d="M207.53,292.14a2.58,2.58,0,0,0-2.58,2c-.92,2.65,1.14,5.29,3.6,6.19a4.1,4.1,0,0,1,1.87,2c.38.72.85,1.43,1.78,1.37a2.24,2.24,0,0,0,1.63-1.06c.87-1.24-.49-2-1.66-1.66a.83.83,0,0,0-.42.26c-.17.2-.33.72-.5.92s-.74-.85-.87-1c-.28-.41-.57-.9-.28-1s.86,0,1.18-.12a2.79,2.79,0,0,0,1.06-.82,1.83,1.83,0,0,0-2-3,2,2,0,0,0-1.52,2.12c0,.61.07,1.13-.75,1s-1.29-1.25.08-2.3a3.57,3.57,0,0,0,1.46-3,1.93,1.93,0,0,0-2-2Z" transform="translate(-190.85 -288.61)"/></g></svg>
